HIERARCHY
ROOT SpineBase
{
  OFFSET 0.000000 0.000000 0.000000
  CHANNELS 6 Xposition Yposition Zposition Zrotation Xrotation Yrotation
  JOINT SpineMid
  {
    OFFSET -0.000000 29.936418 0.000000
    CHANNELS 3 Zrotation Xrotation Yrotation
    JOINT SpineShoulder
    {
      OFFSET 0.136638 22.219489 -0.670100
      CHANNELS 3 Zrotation Xrotation Yrotation
      JOINT Neck
      {
        OFFSET 0.103934 7.348045 -0.510873
        CHANNELS 3 Zrotation Xrotation Yrotation
        JOINT Head
        {
          OFFSET 1.580137 12.352668 4.081599
          CHANNELS 3 Zrotation Xrotation Yrotation
          End Site
          {
            OFFSET 0 0 0
          }
        }
      }
      JOINT ShoulderLeft
      {
        OFFSET -0.495487 -5.589075 -11.792806
        CHANNELS 3 Zrotation Xrotation Yrotation
        JOINT ElbowLeft
        {
          OFFSET 8.652630 -23.625940 -3.781712
          CHANNELS 3 Zrotation Xrotation Yrotation
          JOINT WristLeft
          {
            OFFSET 6.021438 -19.942894 4.513847
            CHANNELS 3 Zrotation Xrotation Yrotation
            JOINT HandLeft
            {
              OFFSET -0.486349 -8.153289 3.635445
              CHANNELS 3 Zrotation Xrotation Yrotation
              JOINT HandTipLeft
              {
                OFFSET 1.215658 -7.388733 0.480226
                CHANNELS 3 Zrotation Xrotation Yrotation
                End Site
                {
                  OFFSET 0 0 0
                }
              }
              JOINT ThumbLeft
              {
                OFFSET -4.256786 0.704670 0.136596
                CHANNELS 3 Zrotation Xrotation Yrotation
                End Site
                {
                  OFFSET 0 0 0
                }
              }
            }
          }
        }
      }
      JOINT ShoulderRight
      {
        OFFSET 1.184262 -7.613608 12.755452
        CHANNELS 3 Zrotation Xrotation Yrotation
        JOINT ElbowRight
        {
          OFFSET -1.412733 -23.836869 5.988348
          CHANNELS 3 Zrotation Xrotation Yrotation
          JOINT WristRight
          {
            OFFSET 2.255059 -24.353417 4.056851
            CHANNELS 3 Zrotation Xrotation Yrotation
            JOINT HandRight
            {
              OFFSET 0.685517 -8.182541 1.698582
              CHANNELS 3 Zrotation Xrotation Yrotation
              JOINT HandTipRight
              {
                OFFSET 0.845619 -0.333249 -2.184272
                CHANNELS 3 Zrotation Xrotation Yrotation
                End Site
                {
                  OFFSET 0 0 0
                }
              }
              JOINT ThumbRight
              {
                OFFSET 1.704886 1.247203 -4.893156
                CHANNELS 3 Zrotation Xrotation Yrotation
                End Site
                {
                  OFFSET 0 0 0
                }
              }
            }
          }
        }
      }
    }
  }
  JOINT HipLeft
  {
    OFFSET 0.816078 2.160590 -6.851276
    CHANNELS 3 Zrotation Xrotation Yrotation
    JOINT KneeLeft
    {
      OFFSET -0.720187 -35.996801 2.554975
      CHANNELS 3 Zrotation Xrotation Yrotation
      JOINT AnkleLeft
      {
        OFFSET -5.365719 -34.134532 1.076142
        CHANNELS 3 Zrotation Xrotation Yrotation
        JOINT FootLeft
        {
          OFFSET 10.396664 -3.560499 -3.238903
          CHANNELS 3 Zrotation Xrotation Yrotation
          End Site
          {
            OFFSET 0 0 0
          }
        }
      }
    }
  }
  JOINT HipRight
  {
    OFFSET 0.372281 -0.463305 0.757198
    CHANNELS 3 Zrotation Xrotation Yrotation
    JOINT KneeRight
    {
      OFFSET -9.352936 -34.693114 2.101624
      CHANNELS 3 Zrotation Xrotation Yrotation
      JOINT AnkleRight
      {
        OFFSET -5.020374 -36.002895 8.345405
        CHANNELS 3 Zrotation Xrotation Yrotation
        JOINT FootRight
        {
          OFFSET 8.117146 -3.517029 -12.107395
          CHANNELS 3 Zrotation Xrotation Yrotation
          End Site
          {
            OFFSET 0 0 0
          }
        }
      }
    }
  }
}
MOTION
Frames: 9
Frame Time: 0.033333
-59.433585 77.137881 274.620914 -3.715169 0.642918 -89.322367 -0.046656 1.092601 89.268269 -0.467528 0.378236 -0.139451 3.094584 -1.068707 0.259119 0.000000 0.000000 0.000000 2.336326 -0.679361 0.512950 0.978616 1.582528 0.383496 -0.237361 -1.977148 -0.652699 2.789525 -0.001690 0.180379 0.000000 0.000000 0.000000 0.000000 0.000000 0.000000 3.094584 -1.068707 0.259119 -0.000000 0.000000 0.000000 -0.000000 0.000000 0.000000 2.229787 4.718341 -2.068299 0.000000 0.000000 0.000000 0.000000 0.000000 0.000000 2.332890 9.687596 89.586298 -6.718786 0.977560 -0.281916 -0.407514 0.284657 -0.039362 0.000000 0.000000 0.000000 5.686091 6.341911 90.385124 1.324368 9.538508 -1.659377 -11.726374 -14.992227 2.276845 0.000000 0.000000 0.000000
-60.692127 77.117825 274.923084 -5.289710 0.301480 -89.491255 -0.160309 1.708809 89.409154 0.224383 0.463489 -0.121293 3.361161 -0.925396 0.273952 0.000000 0.000000 0.000000 2.591199 -0.516067 0.538944 0.963936 1.512226 0.353725 -0.700128 -2.673891 -0.819994 3.053103 0.608553 0.277368 0.000000 0.000000 0.000000 0.000000 0.000000 0.000000 3.361161 -0.925396 0.273952 -0.000000 0.000000 0.000000 -0.000000 0.000000 0.000000 2.229684 4.717955 -2.068557 0.000000 0.000000 0.000000 0.000000 0.000000 0.000000 1.712682 13.088606 89.852026 -8.500064 0.755049 -0.406542 -0.916978 0.141136 0.095348 0.000000 0.000000 0.000000 3.160512 11.968640 90.218442 -4.392144 6.278103 -1.144850 -6.540648 -9.015189 2.034764 0.000000 0.000000 0.000000
-62.161939 77.184929 275.139267 -7.047170 0.071021 -89.208024 -0.187464 2.240164 89.083977 1.076299 0.501753 -0.104877 3.735921 -0.770763 0.295869 0.000000 0.000000 0.000000 2.946582 -0.389392 0.555580 0.969106 1.501403 0.345840 -1.090242 -2.685566 -0.997170 3.831409 0.475161 0.439229 0.000000 0.000000 0.000000 0.000000 0.000000 0.000000 3.735921 -0.770763 0.295869 -0.000000 0.000000 0.000000 -0.000000 0.000000 0.000000 2.229690 4.717882 -2.068734 0.000000 0.000000 0.000000 0.000000 0.000000 0.000000 1.441564 16.990611 89.667529 -10.613134 0.701424 -0.555948 -1.510317 -0.061738 0.258746 0.000000 0.000000 0.000000 2.656419 14.951316 89.849389 -3.669956 7.201199 -1.023489 -6.742670 -9.266569 -2.860668 0.000000 0.000000 0.000000
-63.105774 77.256627 275.403685 -7.970071 -0.207374 -88.063432 -0.230129 2.165344 87.894521 1.649438 0.507294 -0.102370 4.165812 -0.576452 0.318927 0.000000 0.000000 0.000000 3.380159 -0.181538 0.585882 0.955681 1.455801 0.329875 -1.287168 -2.972979 -1.066635 4.500836 1.666733 0.626943 0.000000 0.000000 0.000000 0.000000 0.000000 0.000000 4.165812 -0.576452 0.318927 -0.000000 0.000000 0.000000 -0.000000 0.000000 0.000000 2.229651 4.717739 -2.068826 0.000000 0.000000 0.000000 0.000000 0.000000 0.000000 1.275284 19.371761 88.587589 -11.423123 0.920307 -0.738782 -2.552482 -0.659247 0.411529 0.000000 0.000000 0.000000 2.652254 16.196293 88.623836 -3.319325 7.075638 -0.899497 -6.714197 -8.936857 -5.250400 0.000000 0.000000 0.000000
-63.886734 77.334440 275.566112 -8.672687 -0.294359 -87.505175 -0.149322 2.012364 87.297379 2.025498 0.467452 -0.110045 4.643820 -0.376167 0.343729 0.000000 0.000000 0.000000 3.881295 0.083371 0.633882 0.920793 1.339079 0.292393 -1.224541 -3.166991 -1.009086 5.173718 1.915485 0.598853 0.000000 0.000000 0.000000 0.000000 0.000000 0.000000 4.643820 -0.376167 0.343729 -0.000000 0.000000 0.000000 -0.000000 0.000000 0.000000 2.229583 4.717370 -2.069227 0.000000 0.000000 0.000000 0.000000 0.000000 0.000000 1.338181 21.296335 88.067066 -12.650864 0.814690 -0.826157 -2.869615 -0.729055 0.503579 0.000000 0.000000 0.000000 3.341797 16.895652 88.030305 -1.773078 8.911985 -1.106533 -9.450687 -12.363274 -8.080946 0.000000 0.000000 0.000000
-64.631419 77.325910 275.984717 -9.342617 -0.717244 -86.803507 -0.258093 1.924626 86.544906 2.244246 0.480545 -0.125940 5.189781 -0.086421 0.366420 0.000000 0.000000 0.000000 4.456691 0.458672 0.687433 0.868152 1.230281 0.254634 -1.341475 -2.996000 -1.072481 5.304511 0.057163 0.460011 0.000000 0.000000 0.000000 0.000000 0.000000 0.000000 5.189781 -0.086421 0.366420 -0.000000 0.000000 0.000000 -0.000000 0.000000 0.000000 2.229479 4.717132 -2.069185 0.000000 0.000000 0.000000 0.000000 0.000000 0.000000 0.669324 23.182942 87.507562 -13.837220 0.252666 -0.959133 -3.169031 -0.790166 0.607197 0.000000 0.000000 0.000000 3.545647 17.547421 87.261567 -0.456365 10.393485 -1.306754 -11.402952 -14.461307 -9.523272 0.000000 0.000000 0.000000
-65.081958 77.285022 276.301401 -9.644313 -0.982531 -86.401522 -0.276674 1.703582 86.104069 2.250859 0.449790 -0.148016 5.707175 0.199122 0.384694 0.000000 0.000000 0.000000 5.005561 0.834443 0.737509 0.827825 1.139605 0.225533 -1.580102 -2.883647 -1.195883 5.413921 -0.500774 0.515235 0.000000 0.000000 0.000000 0.000000 0.000000 0.000000 5.707175 0.199122 0.384694 -0.000000 0.000000 0.000000 -0.000000 0.000000 0.000000 2.229362 4.716938 -2.068992 0.000000 0.000000 0.000000 0.000000 0.000000 0.000000 0.200493 24.295637 87.219627 -14.618296 -0.139739 -1.055538 -3.350967 -0.823449 0.683396 0.000000 0.000000 0.000000 4.136730 17.353308 86.832936 1.213961 12.232048 -1.688282 -14.736879 -17.254801 -7.128609 0.000000 0.000000 0.000000
-65.157525 77.242848 276.475300 -9.522141 -1.055618 -86.033800 -0.198311 1.374780 85.718462 2.019963 0.379279 -0.173451 6.689557 -0.221994 0.301312 0.000000 0.000000 0.000000 5.465722 1.158735 0.780355 0.757806 1.188545 0.230822 -1.400810 -2.434073 -1.194134 6.332936 1.050131 0.868635 0.000000 0.000000 0.000000 0.000000 0.000000 0.000000 6.139308 0.438235 0.397950 -0.000000 0.000000 0.000000 -0.000000 0.000000 0.000000 2.229171 4.716710 -2.068504 0.000000 0.000000 0.000000 0.000000 0.000000 0.000000 0.067438 24.439393 86.895258 -14.869630 -0.347429 -1.096632 -3.384332 -0.819570 0.729843 0.000000 0.000000 0.000000 5.251496 16.091641 86.506779 3.410653 14.463079 -2.300191 -18.422609 -21.720913 -10.671530 0.000000 0.000000 0.000000
-65.271161 77.285525 276.605624 -9.514633 -1.108820 -86.112431 -0.135457 1.169697 85.781491 1.779403 0.333024 -0.197654 7.204786 -0.198984 0.308718 0.000000 0.000000 0.000000 5.906141 1.437068 0.831429 0.873133 1.038824 0.210140 -1.692596 -1.343760 -1.343168 6.120137 0.877521 1.191785 0.000000 0.000000 0.000000 0.000000 0.000000 0.000000 6.570780 0.621818 0.413334 -0.000000 0.000000 0.000000 -0.000000 0.000000 0.000000 2.229120 4.716969 -2.067731 0.000000 0.000000 0.000000 0.000000 0.000000 0.000000 -0.238282 24.705947 87.059389 -15.129742 -0.553984 -1.139193 -3.435675 -0.818663 0.785038 0.000000 0.000000 0.000000 4.629938 16.998541 86.561874 1.300591 12.792285 -1.902547 -14.897261 -18.358522 -10.361573 0.000000 0.000000 0.000000
